<svg width="262" height="185" viewBox="0 0 262 185" fill="none" xmlns="http://www.w3.org/2000/svg">
<path d="M18.305 92.288C18.305 88.4053 19.145 84.952 20.825 81.928C22.505 78.8667 24.8384 76.496 27.825 74.816C30.849 73.0987 34.265 72.24 38.073 72.24C42.7397 72.24 46.7344 73.472 50.057 75.936C53.3797 78.4 55.601 81.76 56.721 86.016H46.193C45.409 84.3733 44.289 83.1227 42.833 82.264C41.4144 81.4053 39.7904 80.976 37.961 80.976C35.0117 80.976 32.6224 82.0027 30.793 84.056C28.9637 86.1093 28.049 88.8533 28.049 92.288C28.049 95.7227 28.9637 98.4667 30.793 100.52C32.6224 102.573 35.0117 103.6 37.961 103.6C39.7904 103.6 41.4144 103.171 42.833 102.312C44.289 101.453 45.409 100.203 46.193 98.56H56.721C55.601 102.816 53.3797 106.176 50.057 108.64C46.7344 111.067 42.7397 112.28 38.073 112.28C34.265 112.28 30.849 111.44 27.825 109.76C24.8384 108.043 22.505 105.672 20.825 102.648C19.145 99.624 18.305 96.1707 18.305 92.288ZM72.1613 85.96C73.2813 84.2427 74.6813 82.8987 76.3613 81.928C78.0413 80.92 79.9079 80.416 81.9613 80.416V90.552H79.3293C76.9399 90.552 75.1479 91.0747 73.9533 92.12C72.7586 93.128 72.1613 94.92 72.1613 97.496V112H62.5853V80.752H72.1613V85.96ZM91.3544 77.504C89.6744 77.504 88.2931 77.0187 87.2104 76.048C86.1651 75.04 85.6424 73.808 85.6424 72.352C85.6424 70.8587 86.1651 69.6267 87.2104 68.656C88.2931 67.648 89.6744 67.144 91.3544 67.144C92.9971 67.144 94.3411 67.648 95.3864 68.656C96.4691 69.6267 97.0104 70.8587 97.0104 72.352C97.0104 73.808 96.4691 75.04 95.3864 76.048C94.3411 77.0187 92.9971 77.504 91.3544 77.504ZM96.1144 80.752V112H86.5384V80.752H96.1144ZM101.15 96.32C101.15 93.1093 101.747 90.2907 102.942 87.864C104.174 85.4373 105.835 83.5707 107.926 82.264C110.017 80.9573 112.35 80.304 114.926 80.304C117.129 80.304 119.051 80.752 120.694 81.648C122.374 82.544 123.662 83.72 124.558 85.176V80.752H134.134V112H124.558V107.576C123.625 109.032 122.318 110.208 120.638 111.104C118.995 112 117.073 112.448 114.87 112.448C112.331 112.448 110.017 111.795 107.926 110.488C105.835 109.144 104.174 107.259 102.942 104.832C101.747 102.368 101.15 99.5307 101.15 96.32ZM124.558 96.376C124.558 93.9867 123.886 92.1013 122.542 90.72C121.235 89.3387 119.63 88.648 117.726 88.648C115.822 88.648 114.198 89.3387 112.854 90.72C111.547 92.064 110.894 93.9307 110.894 96.32C110.894 98.7093 111.547 100.613 112.854 102.032C114.198 103.413 115.822 104.104 117.726 104.104C119.63 104.104 121.235 103.413 122.542 102.032C123.886 100.651 124.558 98.7653 124.558 96.376ZM150.638 85.96C151.758 84.2427 153.158 82.8987 154.838 81.928C156.518 80.92 158.385 80.416 160.438 80.416V90.552H157.806C155.417 90.552 153.625 91.0747 152.43 92.12C151.235 93.128 150.638 94.92 150.638 97.496V112H141.062V80.752H150.638V85.96Z" fill="#669853"/>
<path fill-rule="evenodd" clip-rule="evenodd" d="M222 128C241.33 128 257 112.33 257 93C257 73.67 241.33 58 222 58C202.67 58 187 73.67 187 93C187 112.33 202.67 128 222 128ZM222 133C244.091 133 262 115.091 262 93C262 70.9086 244.091 53 222 53C199.909 53 182 70.9086 182 93C182 115.091 199.909 133 222 133ZM225.333 89.8889H248.667V96.5555H225.333V119.889H218.667V96.5555H195.333V89.8889H218.667V66.5555H225.333V89.8889Z" fill="#669853"/>
</svg>
