<svg width="150" height="33" viewBox="0 0 150 33" fill="none" xmlns="http://www.w3.org/2000/svg">
<rect width="25" height="33" rx="4" fill="#F40000"/>
<path d="M47.592 21.832H52.968V25H43.488V8.152H47.592V21.832ZM61.0215 25.192C59.7095 25.192 58.5255 24.912 57.4695 24.352C56.4295 23.792 55.6055 22.992 54.9975 21.952C54.4055 20.912 54.1095 19.696 54.1095 18.304C54.1095 16.928 54.4135 15.72 55.0215 14.68C55.6295 13.624 56.4615 12.816 57.5175 12.256C58.5735 11.696 59.7575 11.416 61.0695 11.416C62.3815 11.416 63.5655 11.696 64.6215 12.256C65.6775 12.816 66.5095 13.624 67.1175 14.68C67.7255 15.72 68.0295 16.928 68.0295 18.304C68.0295 19.68 67.7175 20.896 67.0935 21.952C66.4855 22.992 65.6455 23.792 64.5735 24.352C63.5175 24.912 62.3335 25.192 61.0215 25.192ZM61.0215 21.64C61.8055 21.64 62.4695 21.352 63.0135 20.776C63.5735 20.2 63.8535 19.376 63.8535 18.304C63.8535 17.232 63.5815 16.408 63.0375 15.832C62.5095 15.256 61.8535 14.968 61.0695 14.968C60.2695 14.968 59.6055 15.256 59.0775 15.832C58.5495 16.392 58.2855 17.216 58.2855 18.304C58.2855 19.376 58.5415 20.2 59.0535 20.776C59.5815 21.352 60.2375 21.64 61.0215 21.64ZM75.2948 11.416C76.2388 11.416 77.0628 11.608 77.7668 11.992C78.4868 12.376 79.0388 12.88 79.4228 13.504V11.608H83.5268V24.976C83.5268 26.208 83.2788 27.32 82.7828 28.312C82.3028 29.32 81.5588 30.12 80.5508 30.712C79.5588 31.304 78.3188 31.6 76.8308 31.6C74.8468 31.6 73.2388 31.128 72.0068 30.184C70.7748 29.256 70.0708 27.992 69.8948 26.392H73.9508C74.0788 26.904 74.3828 27.304 74.8628 27.592C75.3428 27.896 75.9348 28.048 76.6388 28.048C77.4868 28.048 78.1588 27.8 78.6548 27.304C79.1668 26.824 79.4228 26.048 79.4228 24.976V23.08C79.0228 23.704 78.4708 24.216 77.7668 24.616C77.0628 25 76.2388 25.192 75.2948 25.192C74.1908 25.192 73.1908 24.912 72.2948 24.352C71.3988 23.776 70.6868 22.968 70.1588 21.928C69.6468 20.872 69.3908 19.656 69.3908 18.28C69.3908 16.904 69.6468 15.696 70.1588 14.656C70.6868 13.616 71.3988 12.816 72.2948 12.256C73.1908 11.696 74.1908 11.416 75.2948 11.416ZM79.4228 18.304C79.4228 17.28 79.1348 16.472 78.5588 15.88C77.9988 15.288 77.3108 14.992 76.4948 14.992C75.6788 14.992 74.9828 15.288 74.4068 15.88C73.8468 16.456 73.5668 17.256 73.5668 18.28C73.5668 19.304 73.8468 20.12 74.4068 20.728C74.9828 21.32 75.6788 21.616 76.4948 21.616C77.3108 21.616 77.9988 21.32 78.5588 20.728C79.1348 20.136 79.4228 19.328 79.4228 18.304ZM92.5918 25.192C91.2798 25.192 90.0958 24.912 89.0398 24.352C87.9998 23.792 87.1758 22.992 86.5678 21.952C85.9758 20.912 85.6798 19.696 85.6798 18.304C85.6798 16.928 85.9838 15.72 86.5918 14.68C87.1998 13.624 88.0318 12.816 89.0878 12.256C90.1438 11.696 91.3278 11.416 92.6398 11.416C93.9518 11.416 95.1358 11.696 96.1918 12.256C97.2478 12.816 98.0798 13.624 98.6878 14.68C99.2958 15.72 99.5998 16.928 99.5998 18.304C99.5998 19.68 99.2878 20.896 98.6638 21.952C98.0558 22.992 97.2158 23.792 96.1438 24.352C95.0878 24.912 93.9038 25.192 92.5918 25.192ZM92.5918 21.64C93.3758 21.64 94.0398 21.352 94.5838 20.776C95.1438 20.2 95.4238 19.376 95.4238 18.304C95.4238 17.232 95.1518 16.408 94.6078 15.832C94.0798 15.256 93.4238 14.968 92.6398 14.968C91.8398 14.968 91.1758 15.256 90.6478 15.832C90.1198 16.392 89.8558 17.216 89.8558 18.304C89.8558 19.376 90.1118 20.2 90.6238 20.776C91.1518 21.352 91.8078 21.64 92.5918 21.64ZM115.001 11.608V25H110.897V23.176C110.481 23.768 109.913 24.248 109.193 24.616C108.489 24.968 107.705 25.144 106.841 25.144C105.817 25.144 104.913 24.92 104.129 24.472C103.345 24.008 102.737 23.344 102.305 22.48C101.873 21.616 101.657 20.6 101.657 19.432V11.608H105.737V18.88C105.737 19.776 105.969 20.472 106.433 20.968C106.897 21.464 107.521 21.712 108.305 21.712C109.105 21.712 109.737 21.464 110.201 20.968C110.665 20.472 110.897 19.776 110.897 18.88V11.608H115.001ZM125.413 21.52V25H123.325C121.837 25 120.677 24.64 119.845 23.92C119.013 23.184 118.597 21.992 118.597 20.344V15.016H116.965V11.608H118.597V8.344H122.701V11.608H125.389V15.016H122.701V20.392C122.701 20.792 122.797 21.08 122.989 21.256C123.181 21.432 123.501 21.52 123.949 21.52H125.413Z" fill="#F40000"/>
</svg>
