<svg width="31" height="21" viewBox="0 0 31 21" fill="none" xmlns="http://www.w3.org/2000/svg">
<path id="Union" fill-rule="evenodd" clip-rule="evenodd" d="M15.9344 8.96722C15.9344 12.8151 12.8151 15.9344 8.96722 15.9344C5.11933 15.9344 2 12.8151 2 8.96722C2 5.11933 5.11933 2 8.96722 2C12.8151 2 15.9344 5.11933 15.9344 8.96722ZM15.6571 14.9386C14.015 16.7771 11.6263 17.9344 8.96722 17.9344C4.01476 17.9344 0 13.9197 0 8.96722C0 4.01476 4.01476 0 8.96722 0C13.9197 0 17.9344 4.01476 17.9344 8.96722C17.9344 10.0156 17.7545 11.0219 17.4239 11.957L30.1134 17.8742L28.6558 21L15.6571 14.9386Z" fill="#9EC17B"/>
</svg>
