<svg width="119" height="46" viewBox="0 0 119 46" fill="none" xmlns="http://www.w3.org/2000/svg">
<rect x="1.5" y="1.5" width="116" height="43" fill="white" stroke="#669853" stroke-width="3"/>
<path d="M49.2031 21.288C49.2031 21.776 49.0911 22.224 48.8671 22.632C48.6431 23.032 48.2991 23.356 47.8351 23.604C47.3711 23.852 46.7951 23.976 46.1071 23.976H44.8351V27H42.7831V18.576H46.1071C46.7791 18.576 47.3471 18.692 47.8111 18.924C48.2751 19.156 48.6231 19.476 48.8551 19.884C49.0871 20.292 49.2031 20.76 49.2031 21.288ZM45.9511 22.344C46.3431 22.344 46.6351 22.252 46.8271 22.068C47.0191 21.884 47.1151 21.624 47.1151 21.288C47.1151 20.952 47.0191 20.692 46.8271 20.508C46.6351 20.324 46.3431 20.232 45.9511 20.232H44.8351V22.344H45.9511ZM52.3233 21.42C52.5633 21.052 52.8633 20.764 53.2233 20.556C53.5833 20.34 53.9833 20.232 54.4233 20.232V22.404H53.8593C53.3473 22.404 52.9633 22.516 52.7073 22.74C52.4513 22.956 52.3233 23.34 52.3233 23.892V27H50.2713V20.304H52.3233V21.42ZM61.7162 23.544C61.7162 23.736 61.7042 23.936 61.6802 24.144H57.0362C57.0682 24.56 57.2002 24.88 57.4322 25.104C57.6722 25.32 57.9642 25.428 58.3082 25.428C58.8202 25.428 59.1762 25.212 59.3762 24.78H61.5602C61.4482 25.22 61.2442 25.616 60.9482 25.968C60.6602 26.32 60.2962 26.596 59.8562 26.796C59.4162 26.996 58.9242 27.096 58.3802 27.096C57.7242 27.096 57.1402 26.956 56.6282 26.676C56.1162 26.396 55.7162 25.996 55.4282 25.476C55.1402 24.956 54.9962 24.348 54.9962 23.652C54.9962 22.956 55.1362 22.348 55.4162 21.828C55.7042 21.308 56.1042 20.908 56.6162 20.628C57.1282 20.348 57.7162 20.208 58.3802 20.208C59.0282 20.208 59.6042 20.344 60.1082 20.616C60.6122 20.888 61.0042 21.276 61.2842 21.78C61.5722 22.284 61.7162 22.872 61.7162 23.544ZM59.6162 23.004C59.6162 22.652 59.4962 22.372 59.2562 22.164C59.0162 21.956 58.7162 21.852 58.3562 21.852C58.0122 21.852 57.7202 21.952 57.4802 22.152C57.2482 22.352 57.1042 22.636 57.0482 23.004H59.6162ZM65.7147 25.344C66.2427 25.344 66.5987 25.088 66.7827 24.576H68.9667C68.8147 25.256 68.5107 25.812 68.0547 26.244C67.5987 26.676 67.0307 26.944 66.3507 27.048V27.492C66.7667 27.492 67.1307 27.604 67.4427 27.828C67.7547 28.06 67.9107 28.404 67.9107 28.86C67.9107 29.316 67.7467 29.66 67.4187 29.892C67.0907 30.132 66.6987 30.252 66.2427 30.252H64.3947V29.124H65.9667C66.1267 29.124 66.2467 29.1 66.3267 29.052C66.4067 29.004 66.4467 28.924 66.4467 28.812C66.4467 28.7 66.4067 28.62 66.3267 28.572C66.2467 28.532 66.1267 28.512 65.9667 28.512H65.1147V27.048C64.2907 26.92 63.6307 26.556 63.1347 25.956C62.6387 25.348 62.3907 24.58 62.3907 23.652C62.3907 22.956 62.5307 22.348 62.8107 21.828C63.0987 21.308 63.4947 20.908 63.9987 20.628C64.5107 20.348 65.0947 20.208 65.7507 20.208C66.5907 20.208 67.2907 20.428 67.8507 20.868C68.4187 21.308 68.7907 21.928 68.9667 22.728H66.7827C66.5987 22.216 66.2427 21.96 65.7147 21.96C65.3387 21.96 65.0387 22.108 64.8147 22.404C64.5907 22.692 64.4787 23.108 64.4787 23.652C64.4787 24.196 64.5907 24.616 64.8147 24.912C65.0387 25.2 65.3387 25.344 65.7147 25.344ZM73.1123 27.096C72.4563 27.096 71.8643 26.956 71.3363 26.676C70.8163 26.396 70.4043 25.996 70.1003 25.476C69.8043 24.956 69.6563 24.348 69.6563 23.652C69.6563 22.964 69.8083 22.36 70.1123 21.84C70.4163 21.312 70.8323 20.908 71.3603 20.628C71.8883 20.348 72.4803 20.208 73.1363 20.208C73.7923 20.208 74.3843 20.348 74.9123 20.628C75.4403 20.908 75.8563 21.312 76.1603 21.84C76.4643 22.36 76.6163 22.964 76.6163 23.652C76.6163 24.34 76.4603 24.948 76.1483 25.476C75.8443 25.996 75.4243 26.396 74.8883 26.676C74.3603 26.956 73.7683 27.096 73.1123 27.096ZM73.1123 25.32C73.5043 25.32 73.8363 25.176 74.1083 24.888C74.3883 24.6 74.5283 24.188 74.5283 23.652C74.5283 23.116 74.3923 22.704 74.1203 22.416C73.8563 22.128 73.5283 21.984 73.1363 21.984C72.7363 21.984 72.4043 22.128 72.1403 22.416C71.8763 22.696 71.7443 23.108 71.7443 23.652C71.7443 24.188 71.8723 24.6 72.1283 24.888C72.3923 25.176 72.7203 25.32 73.1123 25.32Z" fill="#9EC17B"/>
<path d="M92.2929 31.7071C92.6834 32.0976 93.3166 32.0976 93.7071 31.7071L100.071 25.3431C100.462 24.9526 100.462 24.3195 100.071 23.9289C99.6805 23.5384 99.0474 23.5384 98.6569 23.9289L93 29.5858L87.3431 23.9289C86.9526 23.5384 86.3195 23.5384 85.9289 23.9289C85.5384 24.3195 85.5384 24.9526 85.9289 25.3431L92.2929 31.7071ZM92 15V31H94V15H92Z" fill="#9EC17B"/>
</svg>
